<?xml version="1.0" standalone="no"?>
<!DOCTYPE svg PUBLIC "-//W3C//DTD SVG 20010904//EN"
 "http://www.w3.org/TR/2001/REC-SVG-20010904/DTD/svg10.dtd">
<svg version="1.0" xmlns="http://www.w3.org/2000/svg"
 width="300.000000pt" height="300.000000pt" viewBox="0 0 300.000000 300.000000"
 preserveAspectRatio="xMidYMid meet">
<metadata>
Created by potrace 1.14, written by Peter Selinger 2001-2017
</metadata>
<g transform="translate(0.000000,300.000000) scale(0.100000,-0.100000)"
fill="#000000" stroke="none">
<path d="M1470 2972 c0 -4 -21 -8 -47 -7 -27 0 -58 -2 -70 -7 -16 -5 -23 -4
-23 5 0 9 -3 8 -9 -1 -4 -8 -12 -13 -17 -12 -5 1 -31 -2 -59 -7 -66 -10 -69
-10 -75 -13 -3 -1 -13 -3 -22 -5 -18 -3 -84 -23 -108 -32 -8 -3 -19 -7 -25 -8
-54 -14 -200 -85 -295 -144 -223 -140 -418 -357 -534 -595 -54 -110 -100 -234
-111 -297 -3 -18 -7 -35 -9 -38 -4 -7 -18 -99 -19 -121 0 -8 -3 -19 -7 -25 -8
-12 -5 -291 4 -355 6 -39 15 -87 30 -165 7 -31 41 -135 65 -192 11 -29 17 -53
13 -53 -4 0 -2 -4 4 -8 13 -8 79 -134 76 -144 -1 -5 2 -8 6 -8 12 0 44 -59 37
-70 -4 -6 1 -7 11 -3 13 5 16 3 11 -10 -3 -9 -3 -16 1 -16 19 3 25 -2 12 -11
-13 -9 -13 -10 1 -10 15 0 66 -59 62 -72 -2 -4 7 -10 18 -13 13 -4 18 -12 15
-21 -3 -8 -2 -13 3 -10 12 7 53 -39 44 -49 -5 -4 -3 -5 3 -2 13 8 57 -36 47
-47 -4 -4 0 -4 10 0 12 4 17 1 17 -11 0 -9 4 -13 10 -10 5 3 15 -3 22 -15 7
-11 19 -20 26 -20 9 0 11 -7 7 -22 -5 -18 -4 -20 5 -8 9 13 12 13 24 -2 7 -10
16 -15 19 -11 4 3 7 2 7 -4 0 -6 9 -13 21 -16 12 -3 18 -10 15 -15 -3 -5 2 -9
12 -8 9 0 16 -4 15 -11 -2 -8 4 -10 14 -6 12 5 15 2 10 -10 -4 -11 -2 -14 8
-11 19 8 77 -24 69 -38 -4 -7 -3 -8 5 -4 16 10 68 -14 81 -39 6 -12 9 -13 6
-3 -4 12 -1 15 10 11 7 -3 14 -9 14 -15 0 -5 5 -6 10 -3 6 4 24 0 40 -9 16 -8
43 -17 60 -21 16 -4 30 -10 30 -14 0 -4 12 -7 28 -6 15 0 33 -6 40 -15 8 -8
11 -10 8 -4 -3 7 3 9 19 6 14 -2 22 -9 19 -14 -4 -6 2 -7 16 -3 17 5 21 4 15
-6 -6 -11 -5 -12 6 -1 18 17 29 15 29 -5 0 -11 3 -14 8 -7 6 9 67 12 67 4 0
-2 27 -4 60 -6 33 -1 84 -5 112 -7 29 -3 51 -2 49 2 -2 3 21 5 52 5 32 -1 62
2 67 7 6 4 17 4 25 -1 21 -13 33 -12 24 1 -4 7 -1 10 7 7 8 -3 13 -11 11 -17
-1 -7 2 -9 8 -6 6 4 9 10 5 13 -3 3 13 12 37 19 33 9 45 9 57 0 12 -10 13 -9
7 2 -6 9 -5 12 5 9 8 -3 19 2 26 11 11 14 12 14 13 -3 0 -20 0 -20 14 -1 11
15 26 20 64 20 28 0 48 3 45 8 -2 4 -1 12 3 19 5 8 10 6 15 -8 7 -17 8 -17 8
4 1 13 5 20 11 17 6 -4 8 -11 4 -16 -3 -6 3 -5 15 3 12 7 21 17 21 22 0 4 -8
2 -17 -5 -16 -13 -17 -12 -4 4 8 9 16 15 19 12 3 -3 16 2 30 11 13 9 33 13 44
11 16 -5 17 -3 6 11 -9 11 -9 14 -1 8 7 -4 29 4 49 18 29 20 41 23 56 15 11
-6 22 -8 26 -5 3 3 0 6 -7 6 -7 0 -9 5 -5 12 5 7 3 8 -7 3 -11 -7 -11 -5 1 9
8 11 16 14 18 7 5 -14 32 -14 32 0 0 5 -4 7 -10 4 -5 -3 -10 -2 -10 2 0 12 62
48 77 45 8 -2 11 4 7 15 -5 17 -5 17 9 0 13 -16 15 -16 21 -2 3 9 2 13 -4 10
-18 -11 -11 11 9 29 18 17 20 17 31 -1 10 -15 10 -14 6 9 -5 22 -3 26 9 22 9
-4 18 1 22 12 8 21 28 44 38 44 3 0 3 -5 -1 -12 -5 -7 -3 -8 5 -4 7 5 10 13 8
20 -3 6 8 25 24 40 16 16 29 33 29 38 0 5 9 4 19 -2 14 -7 22 -7 27 2 4 6 3 8
-3 5 -6 -4 -13 0 -17 8 -3 8 1 18 8 22 7 5 18 18 25 31 6 12 17 22 24 22 8 0
7 -4 -3 -10 -8 -5 -11 -12 -7 -17 5 -4 12 -1 17 7 6 9 5 19 0 24 -10 10 48 83
63 78 5 -1 6 2 2 8 -4 6 -2 16 3 23 6 7 11 15 11 20 1 4 1 10 2 15 0 4 5 -2
10 -13 8 -18 8 -17 7 5 -3 27 51 149 65 150 5 0 5 -4 2 -10 -4 -6 1 -7 11 -3
13 5 15 3 9 -7 -6 -9 -4 -11 5 -5 11 7 9 12 -8 23 -17 11 -20 18 -11 34 6 11
17 17 24 14 9 -3 12 0 8 9 -3 8 -10 12 -17 8 -6 -3 -6 -1 2 8 6 7 12 23 12 36
0 13 5 23 11 23 5 0 7 -6 3 -12 -5 -9 -2 -9 9 1 18 14 23 26 8 17 -5 -3 -12 1
-15 10 -9 22 -8 24 12 24 9 0 13 4 7 8 -5 4 -11 13 -13 21 -3 12 -1 12 14 0
16 -13 16 -12 6 7 -6 12 -9 23 -7 25 2 3 6 16 8 29 9 48 12 55 27 68 8 8 9 11
3 7 -7 -3 -13 -1 -13 4 0 6 6 11 13 11 8 0 7 4 -3 11 -11 8 -12 12 -2 16 6 2
12 9 12 14 0 6 -4 7 -10 4 -6 -3 -7 1 -4 9 3 9 11 13 17 9 5 -3 7 -1 3 5 -3 5
-3 12 1 15 5 2 3 3 -3 1 -6 -1 -10 16 -10 46 1 26 4 46 7 44 4 -2 4 17 1 43
-4 38 -2 44 9 38 11 -7 12 -6 2 6 -15 18 -25 137 -12 145 5 3 9 11 9 17 0 7
-4 6 -10 -3 -5 -8 -10 -13 -11 -10 0 3 -2 13 -4 22 -2 10 1 21 7 24 5 3 2 15
-9 27 -17 19 -17 20 0 14 9 -4 17 -2 17 3 0 6 -8 10 -17 10 -17 1 -17 2 0 14
18 14 18 14 -1 20 -13 4 -22 19 -25 39 -7 45 -11 60 -20 75 -5 6 -6 15 -4 20
3 4 -3 24 -13 44 -13 27 -15 40 -6 49 8 9 8 10 0 6 -14 -8 -27 20 -17 35 4 7
1 8 -7 3 -10 -6 -12 -3 -8 13 3 12 3 20 -1 19 -3 -1 -6 1 -6 4 0 4 -7 15 -15
25 -46 56 -73 139 -38 118 7 -4 8 -2 4 5 -6 9 -11 9 -21 1 -9 -8 -17 -4 -29
14 -9 14 -16 30 -16 36 0 5 -4 10 -10 10 -5 0 -10 5 -10 11 0 6 -7 17 -16 26
-8 9 -13 22 -10 29 3 7 0 16 -6 20 -7 4 -8 3 -4 -4 4 -7 2 -12 -4 -12 -6 0
-14 8 -17 18 -4 9 -15 23 -26 31 -10 7 -16 20 -13 28 3 8 2 12 -3 9 -11 -7
-63 49 -54 58 5 4 3 6 -3 4 -15 -4 -125 97 -116 107 4 5 1 5 -5 1 -8 -4 -23 4
-38 18 -14 14 -29 27 -33 28 -4 2 -6 7 -4 11 1 5 -2 6 -7 2 -6 -3 -19 3 -30
14 -11 11 -22 17 -25 14 -3 -4 -6 -1 -6 5 0 7 -6 11 -12 10 -7 -2 -12 2 -11 7
1 6 -7 12 -18 12 -10 1 -32 11 -49 23 -16 11 -43 26 -60 31 -16 6 -30 15 -30
20 0 5 -3 8 -7 8 -20 -3 -34 2 -29 10 4 5 -2 7 -13 4 -10 -2 -37 5 -60 16 -22
12 -41 19 -41 16 0 -3 -13 1 -29 9 -16 9 -31 12 -34 9 -4 -3 -13 0 -22 7 -8 7
-15 10 -15 7 0 -3 -15 -1 -32 4 -18 5 -53 12 -78 15 -25 3 -54 8 -65 11 -11 3
-59 7 -106 8 -48 2 -92 6 -98 9 -6 4 -11 3 -11 -2z m530 -2856 c0 -3 -4 -8
-10 -11 -5 -3 -10 -1 -10 4 0 6 5 11 10 11 6 0 10 -2 10 -4z"/>
<path d="M2830 2161 c0 -6 4 -13 10 -16 6 -3 7 1 4 9 -7 18 -14 21 -14 7z"/>
<path d="M2985 1480 c3 -5 8 -10 11 -10 2 0 4 5 4 10 0 6 -5 10 -11 10 -5 0
-7 -4 -4 -10z"/>
<path d="M2973 1385 c0 -8 4 -15 9 -15 4 0 8 4 8 9 0 6 -4 12 -8 15 -5 3 -9
-1 -9 -9z"/>
<path d="M2955 1211 c-3 -5 -2 -12 3 -15 5 -3 9 1 9 9 0 17 -3 19 -12 6z"/>
<path d="M2935 1140 c-3 -6 1 -7 9 -4 18 7 21 14 7 14 -6 0 -13 -4 -16 -10z"/>
<path d="M2810 815 c-11 -13 -10 -14 4 -9 9 3 16 10 16 15 0 13 -6 11 -20 -6z"/>
<path d="M2765 720 c3 -5 8 -10 11 -10 2 0 4 5 4 10 0 6 -5 10 -11 10 -5 0 -7
-4 -4 -10z"/>
<path d="M2707 652 c-14 -15 -15 -19 -2 -19 8 0 12 4 9 8 -2 4 2 9 8 12 7 2
10 7 7 11 -3 3 -13 -2 -22 -12z"/>
<path d="M2646 565 c-11 -8 -15 -15 -9 -15 6 0 16 7 23 15 16 19 11 19 -14 0z"/>
<path d="M2586 494 c-8 -22 -4 -25 11 -9 7 8 9 16 4 19 -5 3 -12 -1 -15 -10z"/>
<path d="M2555 460 c3 -5 8 -10 11 -10 2 0 4 5 4 10 0 6 -5 10 -11 10 -5 0 -7
-4 -4 -10z"/>
<path d="M2500 380 c-9 -6 -10 -10 -3 -10 6 0 15 5 18 10 8 12 4 12 -15 0z"/>
<path d="M2435 361 c-3 -5 -2 -12 3 -15 5 -3 9 1 9 9 0 17 -3 19 -12 6z"/>
<path d="M2357 292 c-14 -15 -14 -19 -3 -19 8 0 14 5 13 11 -1 6 4 10 11 8 8
-1 11 2 7 8 -8 13 -9 13 -28 -8z"/>
<path d="M2225 210 c-16 -11 -25 -20 -20 -20 6 1 19 7 29 15 10 8 23 12 29 8
6 -3 7 -1 3 5 -9 15 -5 16 -41 -8z"/>
<path d="M2121 157 c-8 -10 -7 -14 4 -14 8 0 11 5 8 10 -4 6 1 8 11 4 10 -4
15 -3 11 3 -8 14 -20 12 -34 -3z"/>
<path d="M1950 79 c0 -5 5 -7 10 -4 6 3 10 8 10 11 0 2 -4 4 -10 4 -5 0 -10
-5 -10 -11z"/>
<path d="M1796 47 c-16 -12 -16 -13 3 -13 11 0 18 3 15 7 -2 4 2 10 8 12 7 3
8 6 2 6 -5 1 -18 -5 -28 -12z"/>
<path d="M1675 20 c3 -5 8 -10 11 -10 2 0 4 5 4 10 0 6 -5 10 -11 10 -5 0 -7
-4 -4 -10z"/>
</g>
</svg>
